<mxfile host="Electron" modified="2024-03-24T06:58:02.639Z" agent="Mozilla/5.0 (Windows NT 10.0; Win64; x64) AppleWebKit/537.36 (KHTML, like Gecko) draw.io/24.0.4 Chrome/120.0.6099.109 Electron/28.1.0 Safari/537.36" etag="7k-N2DuN-xLM4mve64BD" version="24.0.4" type="device">
  <diagram id="C5RBs43oDa-KdzZeNtuy" name="Page-1">
    <mxGraphModel dx="1290" dy="621" grid="1" gridSize="10" guides="1" tooltips="1" connect="1" arrows="1" fold="1" page="1" pageScale="1" pageWidth="827" pageHeight="1169" math="0" shadow="0">
      <root>
        <mxCell id="WIyWlLk6GJQsqaUBKTNV-0" />
        <mxCell id="WIyWlLk6GJQsqaUBKTNV-1" parent="WIyWlLk6GJQsqaUBKTNV-0" />
        <mxCell id="oPVC8Vd7kDIVLdrbsbWj-4" value="LoginScreen" style="swimlane;fontStyle=1;align=center;verticalAlign=top;childLayout=stackLayout;horizontal=1;startSize=26;horizontalStack=0;resizeParent=1;resizeParentMax=0;resizeLast=0;collapsible=1;marginBottom=0;whiteSpace=wrap;html=1;" parent="WIyWlLk6GJQsqaUBKTNV-1" vertex="1">
          <mxGeometry x="40" y="120" width="160" height="150" as="geometry">
            <mxRectangle x="40" y="120" width="110" height="30" as="alternateBounds" />
          </mxGeometry>
        </mxCell>
        <mxCell id="oPVC8Vd7kDIVLdrbsbWj-5" value="- loginButton: button&lt;div&gt;- usernameButton: button&lt;/div&gt;&lt;div&gt;- passwordButton: button&lt;/div&gt;" style="text;strokeColor=none;fillColor=none;align=left;verticalAlign=top;spacingLeft=4;spacingRight=4;overflow=hidden;rotatable=0;points=[[0,0.5],[1,0.5]];portConstraint=eastwest;whiteSpace=wrap;html=1;" parent="oPVC8Vd7kDIVLdrbsbWj-4" vertex="1">
          <mxGeometry y="26" width="160" height="64" as="geometry" />
        </mxCell>
        <mxCell id="oPVC8Vd7kDIVLdrbsbWj-6" value="" style="line;strokeWidth=1;fillColor=none;align=left;verticalAlign=middle;spacingTop=-1;spacingLeft=3;spacingRight=3;rotatable=0;labelPosition=right;points=[];portConstraint=eastwest;strokeColor=inherit;" parent="oPVC8Vd7kDIVLdrbsbWj-4" vertex="1">
          <mxGeometry y="90" width="160" height="10" as="geometry" />
        </mxCell>
        <mxCell id="oPVC8Vd7kDIVLdrbsbWj-7" value="+ Login()&lt;div&gt;+ authentucate():&lt;/div&gt;" style="text;strokeColor=none;fillColor=none;align=left;verticalAlign=top;spacingLeft=4;spacingRight=4;overflow=hidden;rotatable=0;points=[[0,0.5],[1,0.5]];portConstraint=eastwest;whiteSpace=wrap;html=1;" parent="oPVC8Vd7kDIVLdrbsbWj-4" vertex="1">
          <mxGeometry y="100" width="160" height="50" as="geometry" />
        </mxCell>
        <mxCell id="oPVC8Vd7kDIVLdrbsbWj-8" value="MainScreen" style="swimlane;fontStyle=1;align=center;verticalAlign=top;childLayout=stackLayout;horizontal=1;startSize=26;horizontalStack=0;resizeParent=1;resizeParentMax=0;resizeLast=0;collapsible=1;marginBottom=0;whiteSpace=wrap;html=1;" parent="WIyWlLk6GJQsqaUBKTNV-1" vertex="1">
          <mxGeometry x="300" y="90" width="170" height="190" as="geometry" />
        </mxCell>
        <mxCell id="oPVC8Vd7kDIVLdrbsbWj-9" value="- addRecipeButton : button&lt;div&gt;- recipeList : List&amp;lt;string&amp;gt;&lt;/div&gt;&lt;div&gt;- listModel: DefaultListModel&amp;lt;string&amp;gt;&lt;/div&gt;&lt;div&gt;- viewRecipeButton: button&lt;/div&gt;" style="text;strokeColor=none;fillColor=none;align=left;verticalAlign=top;spacingLeft=4;spacingRight=4;overflow=hidden;rotatable=0;points=[[0,0.5],[1,0.5]];portConstraint=eastwest;whiteSpace=wrap;html=1;" parent="oPVC8Vd7kDIVLdrbsbWj-8" vertex="1">
          <mxGeometry y="26" width="170" height="74" as="geometry" />
        </mxCell>
        <mxCell id="oPVC8Vd7kDIVLdrbsbWj-10" value="" style="line;strokeWidth=1;fillColor=none;align=left;verticalAlign=middle;spacingTop=-1;spacingLeft=3;spacingRight=3;rotatable=0;labelPosition=right;points=[];portConstraint=eastwest;strokeColor=inherit;" parent="oPVC8Vd7kDIVLdrbsbWj-8" vertex="1">
          <mxGeometry y="100" width="170" height="30" as="geometry" />
        </mxCell>
        <mxCell id="oPVC8Vd7kDIVLdrbsbWj-11" value="+ addListener()&lt;div&gt;+ layoutComponents()&lt;/div&gt;&lt;div&gt;+ initializeComponents()&lt;/div&gt;" style="text;strokeColor=none;fillColor=none;align=left;verticalAlign=top;spacingLeft=4;spacingRight=4;overflow=hidden;rotatable=0;points=[[0,0.5],[1,0.5]];portConstraint=eastwest;whiteSpace=wrap;html=1;" parent="oPVC8Vd7kDIVLdrbsbWj-8" vertex="1">
          <mxGeometry y="130" width="170" height="60" as="geometry" />
        </mxCell>
        <mxCell id="oPVC8Vd7kDIVLdrbsbWj-12" value="AddRecipeScreen" style="swimlane;fontStyle=1;align=center;verticalAlign=top;childLayout=stackLayout;horizontal=1;startSize=30;horizontalStack=0;resizeParent=1;resizeParentMax=0;resizeLast=0;collapsible=1;marginBottom=0;whiteSpace=wrap;html=1;" parent="WIyWlLk6GJQsqaUBKTNV-1" vertex="1">
          <mxGeometry x="560" y="120" width="160" height="130" as="geometry" />
        </mxCell>
        <mxCell id="oPVC8Vd7kDIVLdrbsbWj-13" value="- nameField : textfield&lt;div&gt;- ingredientsArea: textarea&lt;/div&gt;&lt;div&gt;- instructionArea: textArea&lt;/div&gt;" style="text;strokeColor=none;fillColor=none;align=left;verticalAlign=top;spacingLeft=4;spacingRight=4;overflow=hidden;rotatable=0;points=[[0,0.5],[1,0.5]];portConstraint=eastwest;whiteSpace=wrap;html=1;" parent="oPVC8Vd7kDIVLdrbsbWj-12" vertex="1">
          <mxGeometry y="30" width="160" height="60" as="geometry" />
        </mxCell>
        <mxCell id="oPVC8Vd7kDIVLdrbsbWj-14" value="" style="line;strokeWidth=1;fillColor=none;align=left;verticalAlign=middle;spacingTop=-1;spacingLeft=3;spacingRight=3;rotatable=0;labelPosition=right;points=[];portConstraint=eastwest;strokeColor=inherit;" parent="oPVC8Vd7kDIVLdrbsbWj-12" vertex="1">
          <mxGeometry y="90" width="160" height="8" as="geometry" />
        </mxCell>
        <mxCell id="oPVC8Vd7kDIVLdrbsbWj-15" value="+ AddRecipeScreen()" style="text;strokeColor=none;fillColor=none;align=left;verticalAlign=top;spacingLeft=4;spacingRight=4;overflow=hidden;rotatable=0;points=[[0,0.5],[1,0.5]];portConstraint=eastwest;whiteSpace=wrap;html=1;" parent="oPVC8Vd7kDIVLdrbsbWj-12" vertex="1">
          <mxGeometry y="98" width="160" height="32" as="geometry" />
        </mxCell>
        <mxCell id="oPVC8Vd7kDIVLdrbsbWj-16" value="DataPersistence" style="swimlane;fontStyle=1;align=center;verticalAlign=top;childLayout=stackLayout;horizontal=1;startSize=26;horizontalStack=0;resizeParent=1;resizeParentMax=0;resizeLast=0;collapsible=1;marginBottom=0;whiteSpace=wrap;html=1;" parent="WIyWlLk6GJQsqaUBKTNV-1" vertex="1">
          <mxGeometry x="280" y="370" width="170" height="170" as="geometry" />
        </mxCell>
        <mxCell id="oPVC8Vd7kDIVLdrbsbWj-17" value="- filePath : String&lt;div&gt;- data: ArrayList&amp;lt;String&amp;gt;&lt;/div&gt;" style="text;strokeColor=none;fillColor=none;align=left;verticalAlign=top;spacingLeft=4;spacingRight=4;overflow=hidden;rotatable=0;points=[[0,0.5],[1,0.5]];portConstraint=eastwest;whiteSpace=wrap;html=1;" parent="oPVC8Vd7kDIVLdrbsbWj-16" vertex="1">
          <mxGeometry y="26" width="170" height="44" as="geometry" />
        </mxCell>
        <mxCell id="oPVC8Vd7kDIVLdrbsbWj-18" value="" style="line;strokeWidth=1;fillColor=none;align=left;verticalAlign=middle;spacingTop=-1;spacingLeft=3;spacingRight=3;rotatable=0;labelPosition=right;points=[];portConstraint=eastwest;strokeColor=inherit;" parent="oPVC8Vd7kDIVLdrbsbWj-16" vertex="1">
          <mxGeometry y="70" width="170" height="8" as="geometry" />
        </mxCell>
        <mxCell id="oPVC8Vd7kDIVLdrbsbWj-19" value="+ DataPersistence()&lt;div&gt;+ saveData()&lt;/div&gt;&lt;div&gt;+ loadData()&lt;/div&gt;&lt;div&gt;+ addData()&lt;/div&gt;&lt;div&gt;+ getData()&lt;/div&gt;" style="text;strokeColor=none;fillColor=none;align=left;verticalAlign=top;spacingLeft=4;spacingRight=4;overflow=hidden;rotatable=0;points=[[0,0.5],[1,0.5]];portConstraint=eastwest;whiteSpace=wrap;html=1;" parent="oPVC8Vd7kDIVLdrbsbWj-16" vertex="1">
          <mxGeometry y="78" width="170" height="92" as="geometry" />
        </mxCell>
        <mxCell id="oPVC8Vd7kDIVLdrbsbWj-20" value="Recipe" style="swimlane;fontStyle=1;align=center;verticalAlign=top;childLayout=stackLayout;horizontal=1;startSize=26;horizontalStack=0;resizeParent=1;resizeParentMax=0;resizeLast=0;collapsible=1;marginBottom=0;whiteSpace=wrap;html=1;" parent="WIyWlLk6GJQsqaUBKTNV-1" vertex="1">
          <mxGeometry x="50" y="320" width="160" height="240" as="geometry" />
        </mxCell>
        <mxCell id="oPVC8Vd7kDIVLdrbsbWj-21" value="- name : String&lt;div&gt;- ingredients : List&amp;lt;String&amp;gt;&lt;/div&gt;&lt;div&gt;- cookingTime : Int&lt;/div&gt;" style="text;strokeColor=none;fillColor=none;align=left;verticalAlign=top;spacingLeft=4;spacingRight=4;overflow=hidden;rotatable=0;points=[[0,0.5],[1,0.5]];portConstraint=eastwest;whiteSpace=wrap;html=1;" parent="oPVC8Vd7kDIVLdrbsbWj-20" vertex="1">
          <mxGeometry y="26" width="160" height="74" as="geometry" />
        </mxCell>
        <mxCell id="oPVC8Vd7kDIVLdrbsbWj-22" value="" style="line;strokeWidth=1;fillColor=none;align=left;verticalAlign=middle;spacingTop=-1;spacingLeft=3;spacingRight=3;rotatable=0;labelPosition=right;points=[];portConstraint=eastwest;strokeColor=inherit;" parent="oPVC8Vd7kDIVLdrbsbWj-20" vertex="1">
          <mxGeometry y="100" width="160" height="8" as="geometry" />
        </mxCell>
        <mxCell id="oPVC8Vd7kDIVLdrbsbWj-23" value="+ Recipe()&lt;div&gt;+ getName()&lt;div&gt;+ setName()&lt;/div&gt;&lt;/div&gt;&lt;div&gt;+ getIngredients()&lt;/div&gt;&lt;div&gt;+ set&lt;span style=&quot;background-color: initial;&quot;&gt;Ingredients()&lt;/span&gt;&lt;/div&gt;&lt;div&gt;&lt;span style=&quot;background-color: initial;&quot;&gt;+ getCookingTime()&lt;/span&gt;&lt;/div&gt;&lt;div&gt;&lt;span style=&quot;background-color: initial;&quot;&gt;+ setCookingTime()&lt;/span&gt;&lt;/div&gt;" style="text;strokeColor=none;fillColor=none;align=left;verticalAlign=top;spacingLeft=4;spacingRight=4;overflow=hidden;rotatable=0;points=[[0,0.5],[1,0.5]];portConstraint=eastwest;whiteSpace=wrap;html=1;" parent="oPVC8Vd7kDIVLdrbsbWj-20" vertex="1">
          <mxGeometry y="108" width="160" height="132" as="geometry" />
        </mxCell>
        <mxCell id="oPVC8Vd7kDIVLdrbsbWj-24" value="RecipeSearch" style="swimlane;fontStyle=1;align=center;verticalAlign=top;childLayout=stackLayout;horizontal=1;startSize=26;horizontalStack=0;resizeParent=1;resizeParentMax=0;resizeLast=0;collapsible=1;marginBottom=0;whiteSpace=wrap;html=1;" parent="WIyWlLk6GJQsqaUBKTNV-1" vertex="1">
          <mxGeometry x="560" y="320" width="200" height="200" as="geometry" />
        </mxCell>
        <mxCell id="oPVC8Vd7kDIVLdrbsbWj-25" value="- recipes: List&amp;lt;Recipe&amp;gt;" style="text;strokeColor=none;fillColor=none;align=left;verticalAlign=top;spacingLeft=4;spacingRight=4;overflow=hidden;rotatable=0;points=[[0,0.5],[1,0.5]];portConstraint=eastwest;whiteSpace=wrap;html=1;" parent="oPVC8Vd7kDIVLdrbsbWj-24" vertex="1">
          <mxGeometry y="26" width="200" height="44" as="geometry" />
        </mxCell>
        <mxCell id="oPVC8Vd7kDIVLdrbsbWj-26" value="" style="line;strokeWidth=1;fillColor=none;align=left;verticalAlign=middle;spacingTop=-1;spacingLeft=3;spacingRight=3;rotatable=0;labelPosition=right;points=[];portConstraint=eastwest;strokeColor=inherit;" parent="oPVC8Vd7kDIVLdrbsbWj-24" vertex="1">
          <mxGeometry y="70" width="200" height="8" as="geometry" />
        </mxCell>
        <mxCell id="oPVC8Vd7kDIVLdrbsbWj-27" value="+ RecipeSearch(List&amp;lt;Recipe&amp;gt; recipes)&lt;div&gt;+ searchByName(String name)&lt;/div&gt;&lt;div&gt;+ searchByIngredient(String ingredient)&lt;/div&gt;&lt;div&gt;+ searchByCookingTime(Int maxCookingTimeMinutes)&lt;/div&gt;" style="text;strokeColor=none;fillColor=none;align=left;verticalAlign=top;spacingLeft=4;spacingRight=4;overflow=hidden;rotatable=0;points=[[0,0.5],[1,0.5]];portConstraint=eastwest;whiteSpace=wrap;html=1;" parent="oPVC8Vd7kDIVLdrbsbWj-24" vertex="1">
          <mxGeometry y="78" width="200" height="122" as="geometry" />
        </mxCell>
        <mxCell id="70GVbxOTSJERBp_SgrTH-0" value="" style="endArrow=none;html=1;rounded=0;exitX=0.414;exitY=0;exitDx=0;exitDy=0;exitPerimeter=0;" edge="1" parent="WIyWlLk6GJQsqaUBKTNV-1" source="oPVC8Vd7kDIVLdrbsbWj-24" target="oPVC8Vd7kDIVLdrbsbWj-15">
          <mxGeometry width="50" height="50" relative="1" as="geometry">
            <mxPoint x="630" y="350" as="sourcePoint" />
            <mxPoint x="620" y="270" as="targetPoint" />
            <Array as="points" />
          </mxGeometry>
        </mxCell>
        <mxCell id="70GVbxOTSJERBp_SgrTH-1" value="" style="endArrow=none;html=1;rounded=0;entryX=0.002;entryY=0.377;entryDx=0;entryDy=0;entryPerimeter=0;" edge="1" parent="WIyWlLk6GJQsqaUBKTNV-1">
          <mxGeometry width="50" height="50" relative="1" as="geometry">
            <mxPoint x="450" y="455.5" as="sourcePoint" />
            <mxPoint x="560.4000000000001" y="454.4939999999999" as="targetPoint" />
          </mxGeometry>
        </mxCell>
        <mxCell id="70GVbxOTSJERBp_SgrTH-2" value="" style="endArrow=none;html=1;rounded=0;entryX=0.013;entryY=0.74;entryDx=0;entryDy=0;entryPerimeter=0;" edge="1" parent="WIyWlLk6GJQsqaUBKTNV-1" target="oPVC8Vd7kDIVLdrbsbWj-13">
          <mxGeometry width="50" height="50" relative="1" as="geometry">
            <mxPoint x="470" y="194.5" as="sourcePoint" />
            <mxPoint x="550" y="194.5" as="targetPoint" />
          </mxGeometry>
        </mxCell>
        <mxCell id="70GVbxOTSJERBp_SgrTH-3" value="" style="endArrow=none;html=1;rounded=0;entryX=0.28;entryY=0.987;entryDx=0;entryDy=0;entryPerimeter=0;" edge="1" parent="WIyWlLk6GJQsqaUBKTNV-1" target="oPVC8Vd7kDIVLdrbsbWj-11">
          <mxGeometry width="50" height="50" relative="1" as="geometry">
            <mxPoint x="350" y="370" as="sourcePoint" />
            <mxPoint x="360" y="282" as="targetPoint" />
            <Array as="points">
              <mxPoint x="350" y="340" />
            </Array>
          </mxGeometry>
        </mxCell>
        <mxCell id="70GVbxOTSJERBp_SgrTH-4" value="" style="endArrow=none;html=1;rounded=0;entryX=0.007;entryY=0.547;entryDx=0;entryDy=0;entryPerimeter=0;exitX=0.998;exitY=0.856;exitDx=0;exitDy=0;exitPerimeter=0;" edge="1" parent="WIyWlLk6GJQsqaUBKTNV-1" source="oPVC8Vd7kDIVLdrbsbWj-5">
          <mxGeometry width="50" height="50" relative="1" as="geometry">
            <mxPoint x="198.81" y="213.59" as="sourcePoint" />
            <mxPoint x="300.00000000000006" y="199.99999999999997" as="targetPoint" />
          </mxGeometry>
        </mxCell>
        <mxCell id="70GVbxOTSJERBp_SgrTH-5" value="" style="endArrow=none;html=1;rounded=0;" edge="1" parent="WIyWlLk6GJQsqaUBKTNV-1">
          <mxGeometry width="50" height="50" relative="1" as="geometry">
            <mxPoint x="210" y="450" as="sourcePoint" />
            <mxPoint x="280" y="450" as="targetPoint" />
          </mxGeometry>
        </mxCell>
        <mxCell id="70GVbxOTSJERBp_SgrTH-7" value="" style="endArrow=none;html=1;rounded=0;exitX=1;exitY=0;exitDx=0;exitDy=0;" edge="1" parent="WIyWlLk6GJQsqaUBKTNV-1" source="oPVC8Vd7kDIVLdrbsbWj-20">
          <mxGeometry width="50" height="50" relative="1" as="geometry">
            <mxPoint x="240" y="330" as="sourcePoint" />
            <mxPoint x="301" y="280" as="targetPoint" />
          </mxGeometry>
        </mxCell>
        <mxCell id="70GVbxOTSJERBp_SgrTH-8" value="" style="endArrow=none;html=1;rounded=0;" edge="1" parent="WIyWlLk6GJQsqaUBKTNV-1">
          <mxGeometry width="50" height="50" relative="1" as="geometry">
            <mxPoint x="450" y="370" as="sourcePoint" />
            <mxPoint x="560" y="250" as="targetPoint" />
          </mxGeometry>
        </mxCell>
        <mxCell id="70GVbxOTSJERBp_SgrTH-9" value="" style="endArrow=none;html=1;rounded=0;entryX=0.258;entryY=1.007;entryDx=0;entryDy=0;entryPerimeter=0;exitX=0.445;exitY=1.018;exitDx=0;exitDy=0;exitPerimeter=0;" edge="1" parent="WIyWlLk6GJQsqaUBKTNV-1" source="oPVC8Vd7kDIVLdrbsbWj-23" target="oPVC8Vd7kDIVLdrbsbWj-27">
          <mxGeometry width="50" height="50" relative="1" as="geometry">
            <mxPoint x="110" y="610" as="sourcePoint" />
            <mxPoint x="610" y="610" as="targetPoint" />
            <Array as="points">
              <mxPoint x="121" y="600" />
              <mxPoint x="180" y="600" />
              <mxPoint x="360" y="600" />
              <mxPoint x="520" y="600" />
              <mxPoint x="612" y="600" />
            </Array>
          </mxGeometry>
        </mxCell>
        <mxCell id="70GVbxOTSJERBp_SgrTH-10" value="" style="endArrow=none;html=1;rounded=0;exitX=0;exitY=0;exitDx=0;exitDy=0;exitPerimeter=0;" edge="1" parent="WIyWlLk6GJQsqaUBKTNV-1" source="oPVC8Vd7kDIVLdrbsbWj-24">
          <mxGeometry width="50" height="50" relative="1" as="geometry">
            <mxPoint x="580" y="320" as="sourcePoint" />
            <mxPoint x="470" y="280" as="targetPoint" />
            <Array as="points" />
          </mxGeometry>
        </mxCell>
      </root>
    </mxGraphModel>
  </diagram>
</mxfile>
